<?xml version="1.0" encoding="UTF-8"?>
<svg width="1001px" height="1000px" viewBox="0 0 1001 1000" version="1.1" xmlns="http://www.w3.org/2000/svg" xmlns:xlink="http://www.w3.org/1999/xlink">
    <!-- Generator: Sketch 55.1 (78136) - https://sketchapp.com -->
    <title>编组 44</title>
    <desc>Created with Sketch.</desc>
    <g id="1000个上传" stroke="none" stroke-width="1" fill="none" fill-rule="evenodd">
        <g id="14" transform="translate(-3863.000000, -170.000000)">
            <g id="编组-44" transform="translate(3863.333333, 170.000000)">
                <rect id="矩形备份-37" x="0" y="0" width="1000" height="1000"></rect>
                <g id="编组-74" transform="translate(132.000000, 106.000000)" fill-rule="nonzero">
                    <polygon id="路径" fill="#F7E5B7" points="364.05 468.18 688.14 281.07 364.05 93.96 39.96 281.07"></polygon>
                    <polygon id="路径" fill="#E3B674" points="39.96 586.44 364.05 773.55 364.05 468.18 39.96 281.07"></polygon>
                    <polygon id="路径" fill="#F6D47D" points="688.14 586.44 364.05 773.55 364.05 468.18 688.14 281.07"></polygon>
                    <polygon id="路径" fill="#F7E5B7" points="364.05 420.3 728.01 210.15 364.05 1.13686838e-13 2.84217094e-14 210.15"></polygon>
                    <polygon id="路径" fill="#E3B674" points="688.14 340.65 364.05 527.76 364.05 468.18 688.14 281.07"></polygon>
                    <polygon id="路径" fill="#F6D47D" points="728.01 299.16 364.05 509.31 364.05 420.3 728.01 210.15"></polygon>
                    <polygon id="路径" fill="#E3B674" opacity="0.5" style="mix-blend-mode: multiply;" points="39.96 340.65 364.05 527.76 364.05 468.18 39.96 281.07"></polygon>
                    <polygon id="路径" fill="#E3B674" points="1.77635684e-13 299.16 364.05 509.31 364.05 420.3 1.77635684e-13 210.15"></polygon>
                    <polygon id="路径" fill="#FE8D8B" points="206.28 329.22 157.86 301.23 521.82 91.08 570.33 119.07"></polygon>
                    <polygon id="路径" fill="#FE8D8B" points="570.33 301.23 521.82 329.22 157.86 119.07 206.28 91.08"></polygon>
                    <polygon id="路径" fill="#FE787A" points="570.33 654.57 521.82 682.47 521.82 329.22 570.33 301.32"></polygon>
                    <polygon id="路径" fill="#EF5E65" points="157.86 654.57 206.28 682.47 206.28 329.22 157.86 301.32"></polygon>
                    <g id="编组" transform="translate(166.050000, 123.570000)">
                        <path d="M26.1895404,42.75 L26.1895404,82.53 C26.1895404,95.67 39.24,106.47 55.53,106.56 L158.58,106.56 L158.58,66.78 L55.62,66.78 C39.24,66.69 26.1,55.89 26.1895404,42.75 Z" id="路径" fill="#EF5E65"></path>
                        <path d="M340.56,67.68 L237.51,67.68 L237.51,107.46 L340.56,107.46 C356.76,107.46 369.99,96.84 369.99,83.61 L369.99,43.83 C368.338244,58.4824316 355.236716,69.099878 340.56,67.68 Z" id="路径" fill="#EF5E65"></path>
                        <polygon id="路径" fill="#FE8D8B" points="82.8 46.8 82.98 7.02 198 65.52 197.82 105.3"></polygon>
                        <polygon id="路径" fill="#FE8D8B" points="197.82 105.3 198 65.52 313.38 7.74 313.2 47.52"></polygon>
                        <path d="M3.6,82.44 L3.6,42.66 C3.6,19.35 27,0.36 55.71,0.44968141 C65.0951089,0.537558675 74.3339378,2.78567371 82.71,7.02 L82.71,46.8 C74.3424247,42.5532765 65.0935384,40.3335438 55.71,40.32 C27,40.23 3.6,59.13 3.6,82.44 Z" id="路径" fill="#FE8D8B"></path>
                        <path d="M313.2,47.52 L313.2,7.74 C321.586244,3.56509415 330.832082,1.40773203 340.2,1.43964329 L340.2,41.22 C330.838404,41.2427712 321.604934,43.3972476 313.2,47.52 L313.2,47.52 Z" id="路径" fill="#FE8D8B"></path>
                        <path d="M340.56,41.22 C369.18,41.22 392.4,60.39 392.310261,83.7 C392.22,107.01 369,126 340.38,126 L198,125.28 L55.26,124.83 C26.64,124.83 3.51,105.75 3.59973824,82.44 C3.69,59.13 26.91,40.23 55.62,40.3196799 C65.0035384,40.3335438 74.2524247,42.5532765 82.62,46.8 L198,105.3 L313.38,47.52 C321.83952,43.3705398 331.137608,41.2153539 340.56,41.22 Z M55.35,106.56 L158.4,106.56 L70.92,62.01 C66.1767443,59.6161488 60.9330248,58.3823325 55.62,58.4095448 C41.4,58.4095448 26.01,67.41 26.01,82.26 C26.01,95.4 39.06,106.2 55.35,106.29 L55.35,106.56 Z M340.38,107.19 C356.58,107.19 369.81,96.57 369.81,83.34 C369.81,68.58 354.6,59.31 340.47,59.31 C335.132828,59.2296308 329.854541,60.4334506 325.08,62.82 L237.33,106.83 L340.38,106.83 L340.38,107.19 Z" id="形状" fill="#FE787A"></path>
                        <path d="M340.56,41.22 L340.56,1.44 C369.18,1.44 392.49,20.61 392.40026,43.92 L392.40026,83.7 C392.40026,60.39 369,41.31 340.56,41.22 Z" id="路径" fill="#FE8D8B"></path>
                    </g>
                </g>
            </g>
        </g>
    </g>
</svg>